# xmcd
#
# Track frame offsets: 
#        150
#        31926
#        53610
#        77180
#        102094
#        125757
#        145220
#
# Disc length: 2280 seconds
#
# Revision: 0
# Processed by: cddbd v1.5.2PL0 Copyright (c) Steve Scherf et al.
# Submitted via: ExactAudioCopy v0.99pb4
#
DISCID=5708e607
DTITLE=The Isley Brothers - The Real Deal (Japan Paper Sleeve Edition)
DYEAR=1982
DGENRE=Funk
TTITLE0=The Real Deal (Part I and II)
TTITLE1=Are You With Me?
TTITLE2=Stone Cold Lover
TTITLE3=It's Alright With Me
TTITLE4=All In My Lover's Eyes
TTITLE5=I'll Do It All For You
TTITLE6=Under The Influence
EXTD=
EXTT0=
EXTT1=
EXTT2=
EXTT3=
EXTT4=
EXTT5=
EXTT6=
PLAYORDER=
